<svg width="41" height="10" viewBox="0 0 41 10" fill="none" xmlns="http://www.w3.org/2000/svg">
<path d="M34.0016 9.66431C37.5849 9.66431 40.5 7.64559 40.5 5.16425C40.5 2.68291 37.5849 0.664307 34.0016 0.664307C30.6122 0.664307 27.8221 2.47068 27.53 4.76611H22.8529V3.81951L0.5 3.81951V6.50877L22.853 6.50877V5.56229H27.5301C27.8223 7.85783 30.6122 9.66431 34.0016 9.66431ZM21.9898 5.7127L1.36329 5.7127V4.61592H21.9898V5.7127ZM28.3662 5.16425C28.3662 3.12209 30.8944 1.46071 34.0017 1.46071C37.1091 1.46071 39.6372 3.12209 39.6372 5.16425C39.6372 7.20652 37.1091 8.86801 34.0017 8.86801C30.8944 8.86801 28.3662 7.20652 28.3662 5.16425Z" fill="#C0C6BA"/>
</svg>
